<svg width="99" height="20" viewBox="0 0 99 20" fill="none" xmlns="http://www.w3.org/2000/svg">
<path d="M10.752 12.248L13.632 0.952H21.184L15.168 19H6.304L0.288 0.952H7.84L10.752 12.248ZM31.8948 19.224C30.0814 19.224 28.4494 18.8507 26.9988 18.104C25.5481 17.3573 24.4068 16.2907 23.5748 14.904C22.7641 13.496 22.3588 11.8533 22.3588 9.976C22.3588 8.09867 22.7641 6.46667 23.5748 5.08C24.4068 3.672 25.5481 2.59467 26.9988 1.848C28.4494 1.10133 30.0814 0.727999 31.8948 0.727999C33.7081 0.727999 35.3401 1.10133 36.7908 1.848C38.2414 2.59467 39.3721 3.672 40.1828 5.08C41.0148 6.46667 41.4308 8.09867 41.4308 9.976C41.4308 11.8533 41.0148 13.496 40.1828 14.904C39.3721 16.2907 38.2414 17.3573 36.7908 18.104C35.3401 18.8507 33.7081 19.224 31.8948 19.224ZM31.8948 13.08C32.5561 13.08 33.1108 12.824 33.5588 12.312C34.0068 11.7787 34.2308 11 34.2308 9.976C34.2308 8.952 34.0068 8.184 33.5588 7.672C33.1108 7.13867 32.5561 6.872 31.8948 6.872C31.2334 6.872 30.6788 7.13867 30.2308 7.672C29.7828 8.184 29.5588 8.952 29.5588 9.976C29.5588 11 29.7721 11.7787 30.1988 12.312C30.6468 12.824 31.2121 13.08 31.8948 13.08ZM51.0165 4.28C51.7418 3.23467 52.6272 2.40267 53.6725 1.784C54.7178 1.144 55.8058 0.823999 56.9365 0.823999V8.408H54.9205C53.5765 8.408 52.5845 8.64267 51.9445 9.112C51.3258 9.58133 51.0165 10.4133 51.0165 11.608V19H43.9125V0.952H51.0165V4.28ZM67.676 19.224C65.8627 19.224 64.2307 18.8507 62.78 18.104C61.3293 17.3573 60.188 16.2907 59.356 14.904C58.5453 13.496 58.14 11.8533 58.14 9.976C58.14 8.09867 58.5453 6.46667 59.356 5.08C60.188 3.672 61.3293 2.59467 62.78 1.848C64.2307 1.10133 65.8627 0.727999 67.676 0.727999C69.4893 0.727999 71.1213 1.10133 72.572 1.848C74.0227 2.59467 75.1533 3.672 75.964 5.08C76.796 6.46667 77.212 8.09867 77.212 9.976C77.212 11.8533 76.796 13.496 75.964 14.904C75.1533 16.2907 74.0227 17.3573 72.572 18.104C71.1213 18.8507 69.4893 19.224 67.676 19.224ZM67.676 13.08C68.3373 13.08 68.892 12.824 69.34 12.312C69.788 11.7787 70.012 11 70.012 9.976C70.012 8.952 69.788 8.184 69.34 7.672C68.892 7.13867 68.3373 6.872 67.676 6.872C67.0147 6.872 66.46 7.13867 66.012 7.672C65.564 8.184 65.34 8.952 65.34 9.976C65.34 11 65.5533 11.7787 65.98 12.312C66.428 12.824 66.9933 13.08 67.676 13.08ZM92.3338 0.823999C94.4031 0.823999 96.0138 1.51733 97.1658 2.904C98.3391 4.29067 98.9258 6.168 98.9258 8.536V19H91.8538V9.432C91.8538 8.57867 91.6191 7.90667 91.1498 7.416C90.7018 6.904 90.0938 6.648 89.3258 6.648C88.5364 6.648 87.9178 6.904 87.4698 7.416C87.0218 7.90667 86.7978 8.57867 86.7978 9.432V19H79.6938V0.952H86.7978V3.704C87.3524 2.85067 88.0884 2.15733 89.0058 1.624C89.9444 1.09067 91.0538 0.823999 92.3338 0.823999Z" fill="black" fill-opacity="0.87"/>
</svg>
